<svg width="20" height="20" viewBox="0 0 20 20" fill="none" xmlns="http://www.w3.org/2000/svg">
<path d="M9.8592 13.3218C9.87591 13.3432 9.89725 13.3604 9.92161 13.3723C9.94598 13.3842 9.97272 13.3903 9.99983 13.3903C10.0269 13.3903 10.0537 13.3842 10.078 13.3723C10.1024 13.3604 10.1237 13.3432 10.1405 13.3218L12.6405 10.1589C12.732 10.0428 12.6494 9.87094 12.4998 9.87094H10.8458V2.31737C10.8458 2.21915 10.7655 2.13879 10.6672 2.13879H9.32795C9.22974 2.13879 9.14938 2.21915 9.14938 2.31737V9.86871H7.49983C7.35027 9.86871 7.26768 10.0406 7.3592 10.1567L9.8592 13.3218ZM18.1695 12.5406H16.8302C16.732 12.5406 16.6516 12.6209 16.6516 12.7192V16.1567H3.34804V12.7192C3.34804 12.6209 3.26768 12.5406 3.16947 12.5406H1.83018C1.73197 12.5406 1.65161 12.6209 1.65161 12.7192V17.1388C1.65161 17.5339 1.97081 17.8531 2.3659 17.8531H17.6338C18.0288 17.8531 18.348 17.5339 18.348 17.1388V12.7192C18.348 12.6209 18.2677 12.5406 18.1695 12.5406Z" fill="white"/>
</svg>
