<svg width="40" height="40" viewBox="0 0 40 40" fill="none" xmlns="http://www.w3.org/2000/svg">
<path d="M6.24976 8.75H33.7498V27.5C33.7498 27.8315 33.6181 28.1495 33.3836 28.3839C33.1492 28.6183 32.8313 28.75 32.4998 28.75H26.2498C25.9182 28.75 25.6003 28.6183 25.3659 28.3839C25.1315 28.1495 24.9998 27.8315 24.9998 27.5V23.75H14.9998V32.5C14.9998 32.8315 14.8681 33.1495 14.6336 33.3839C14.3992 33.6183 14.0813 33.75 13.7498 33.75H7.49976C7.16824 33.75 6.85029 33.6183 6.61587 33.3839C6.38145 33.1495 6.24976 32.8315 6.24976 32.5V8.75Z" stroke="#25488D" stroke-width="2.5" stroke-linecap="round" stroke-linejoin="round"/>
<path d="M14.9998 18.75H6.24976" stroke="#25488D" stroke-width="2.5" stroke-linecap="round" stroke-linejoin="round"/>
<path d="M14.9998 8.75V23.75" stroke="#25488D" stroke-width="2.5" stroke-linecap="round" stroke-linejoin="round"/>
<path d="M25.0007 18.75H33.7507" stroke="#25488D" stroke-width="2.5" stroke-linecap="round" stroke-linejoin="round"/>
<path d="M25.0007 8.75V23.75" stroke="#25488D" stroke-width="2.5" stroke-linecap="round" stroke-linejoin="round"/>
</svg>
