<svg width="32" height="28" viewBox="0 0 32 28" fill="none" xmlns="http://www.w3.org/2000/svg">
<path d="M4.00811 14.6874C3.66098 14.6874 3.37695 14.4 3.37695 14.0488C3.37695 11.7501 4.13435 9.61092 5.52291 7.79108C6.21719 6.89712 7.03771 6.1628 7.98445 5.55618C8.26847 5.36462 8.64717 5.4604 8.83652 5.74775C9.02589 6.03509 8.93122 6.41822 8.64717 6.60978C7.82666 7.15254 7.10082 7.79108 6.50122 8.58926C5.27044 10.1537 4.63928 12.0374 4.63928 14.0488C4.63928 14.4 4.35526 14.6874 4.00811 14.6874ZM11.2034 5.52426C10.9194 5.52426 10.6669 5.3327 10.6038 5.04535C10.5406 4.69415 10.73 4.37488 11.0772 4.2791C11.803 4.08754 12.5919 4.02368 13.3493 4.02368C13.6965 4.02368 13.9805 4.31103 13.9805 4.66222C13.9805 5.01342 13.6965 5.30077 13.3493 5.30077C12.6866 5.30077 11.9923 5.36462 11.3612 5.52426C11.2981 5.49233 11.2349 5.52426 11.2034 5.52426Z" fill="#223A94"/>
<path d="M13.6647 1.56273C16.3471 1.56273 18.8718 2.42476 21.0178 4.02112C22.785 5.33014 24.142 7.05421 25.0257 9.06562L19.3136 10.9493C18.1776 8.90597 16.0631 7.59696 13.6647 7.59696C10.0986 7.56505 7.19529 10.5023 7.19529 14.1101C7.19529 17.7179 10.0986 20.6552 13.6647 20.6552C16.0316 20.6552 18.1776 19.3462 19.3136 17.3028L25.0257 19.1865C24.1736 21.198 22.785 22.922 21.0178 24.231C18.8718 25.8274 16.3156 26.6894 13.6647 26.6894C6.81656 26.6575 1.26233 21.0383 1.26233 14.1101C1.26233 7.18189 6.81656 1.56273 13.6647 1.56273ZM13.6647 0.285645C6.12228 0.285645 0 6.4795 0 14.1101C0 21.7407 6.12228 27.9346 13.6647 27.9346C19.7239 27.9346 24.8679 23.9118 26.6667 18.3883L18.6194 15.7384C17.9566 17.8456 15.9685 19.3781 13.6647 19.3781C10.7929 19.3781 8.45758 17.0155 8.45758 14.1101C8.45758 11.2048 10.7929 8.8421 13.6647 8.8421C15.9685 8.8421 17.9566 10.3746 18.6194 12.4818L26.6667 9.83188C24.8679 4.30847 19.7239 0.285645 13.6647 0.285645Z" fill="#223A94"/>
<path d="M30.4856 11.4584C30.675 12.3204 30.7696 13.2144 30.7696 14.1083C30.7696 15.0023 30.675 15.8963 30.4856 16.7583L23.7006 14.5234L22.4067 14.1083L23.669 13.6933L30.4856 11.4584ZM31.3377 9.83008L23.2903 12.48L18.3357 14.1083L23.2903 15.7366L31.3377 18.3865C31.7795 17.0456 32.0004 15.6089 32.0004 14.1083C32.0004 12.6077 31.7795 11.171 31.3377 9.83008Z" fill="#43B5C3"/>
</svg>
