<svg width="40" height="40" viewBox="0 0 40 40" fill="none" xmlns="http://www.w3.org/2000/svg">
<path d="M20 1.20001C9.46535 1.20001 1 9.66536 1 20.0119C1 30.3584 9.46535 38.8238 20 38.8238C30.5347 38.8238 39 30.3584 39 20.0119C39 9.66536 30.5347 1.20001 20 1.20001ZM30.6287 15.7792C29.5941 20.3881 25.3614 23.6802 20.5644 23.6802H17.3663L15.5792 31.5812H9.55941L11.3465 23.7743L12.5693 18.2248H18.6832L18.1188 20.8584L26.0198 16.1555L20.1881 11.4525L19.6238 14.0862H13.5099L14.7327 9.101C14.7327 9.101 21.9752 8.44259 25.2673 8.91288C28.3713 9.38318 30.8168 11.5465 30.8168 14.4624C30.7228 15.0267 30.7228 15.403 30.6287 15.7792Z" fill="#25488D"/>
</svg>
