<svg width="40" height="40" viewBox="0 0 40 40" fill="none" xmlns="http://www.w3.org/2000/svg">
<path d="M30.4997 10.5667H9.49969C9.38183 10.5667 9.2854 10.6631 9.2854 10.7809V12.4952C9.2854 12.6131 9.38183 12.7095 9.49969 12.7095H30.4997C30.6175 12.7095 30.714 12.6131 30.714 12.4952V10.7809C30.714 10.6631 30.6175 10.5667 30.4997 10.5667ZM30.4997 27.2809H9.49969C9.38183 27.2809 9.2854 27.3774 9.2854 27.4952V29.2095C9.2854 29.3274 9.38183 29.4238 9.49969 29.4238H30.4997C30.6175 29.4238 30.714 29.3274 30.714 29.2095V27.4952C30.714 27.3774 30.6175 27.2809 30.4997 27.2809ZM30.4997 18.9238H9.49969C9.38183 18.9238 9.2854 19.0202 9.2854 19.1381V20.8524C9.2854 20.9702 9.38183 21.0667 9.49969 21.0667H30.4997C30.6175 21.0667 30.714 20.9702 30.714 20.8524V19.1381C30.714 19.0202 30.6175 18.9238 30.4997 18.9238Z" fill="black" fill-opacity="0.85"/>
</svg>
