<svg width="24" height="24" viewBox="0 0 24 24" fill="none" xmlns="http://www.w3.org/2000/svg">
<path d="M22.4997 2.56641H1.49969C1.38183 2.56641 1.2854 2.66283 1.2854 2.78069V4.49498C1.2854 4.61284 1.38183 4.70926 1.49969 4.70926H22.4997C22.6175 4.70926 22.714 4.61284 22.714 4.49498V2.78069C22.714 2.66283 22.6175 2.56641 22.4997 2.56641ZM22.4997 19.2807H1.49969C1.38183 19.2807 1.2854 19.3771 1.2854 19.495V21.2093C1.2854 21.3271 1.38183 21.4236 1.49969 21.4236H22.4997C22.6175 21.4236 22.714 21.3271 22.714 21.2093V19.495C22.714 19.3771 22.6175 19.2807 22.4997 19.2807ZM22.4997 10.9236H1.49969C1.38183 10.9236 1.2854 11.02 1.2854 11.1378V12.8521C1.2854 12.97 1.38183 13.0664 1.49969 13.0664H22.4997C22.6175 13.0664 22.714 12.97 22.714 12.8521V11.1378C22.714 11.02 22.6175 10.9236 22.4997 10.9236Z" fill="#3D3D3D"/>
</svg>
