<svg width="24" height="24" viewBox="0 0 24 24" fill="none" xmlns="http://www.w3.org/2000/svg">
<path fill-rule="evenodd" clip-rule="evenodd" d="M24 12C24 18.6274 18.6274 24 12 24C5.37258 24 0 18.6274 0 12C0 5.37258 5.37258 0 12 0C18.6274 0 24 5.37258 24 12ZM12.6818 6.00002C12.6818 5.62346 12.3766 5.3182 12 5.3182C11.6234 5.3182 11.3182 5.62346 11.3182 6.00002V18C11.3182 18.3766 11.6234 18.6818 12 18.6818C12.3766 18.6818 12.6818 18.3766 12.6818 18V6.00002ZM15.2727 8.59094C15.6493 8.59094 15.9546 8.8962 15.9546 9.27276V15.8182C15.9546 16.1948 15.6493 16.5 15.2727 16.5C14.8962 16.5 14.5909 16.1948 14.5909 15.8182V9.27276C14.5909 8.8962 14.8962 8.59094 15.2727 8.59094ZM9.40912 9.27276C9.40912 8.8962 9.10386 8.59094 8.7273 8.59094C8.35075 8.59094 8.04548 8.8962 8.04548 9.27276V15.8182C8.04548 16.1948 8.35075 16.5 8.7273 16.5C9.10386 16.5 9.40912 16.1948 9.40912 15.8182V9.27276ZM5.45456 10.7727C5.83112 10.7727 6.13638 11.078 6.13638 11.4545V13.6364C6.13638 14.0129 5.83112 14.3182 5.45456 14.3182C5.078 14.3182 4.77274 14.0129 4.77274 13.6364V11.4545C4.77274 11.078 5.078 10.7727 5.45456 10.7727ZM19.2273 11.4545C19.2273 11.078 18.922 10.7727 18.5455 10.7727C18.1689 10.7727 17.8637 11.078 17.8637 11.4545V13.6364C17.8637 14.0129 18.1689 14.3182 18.5455 14.3182C18.922 14.3182 19.2273 14.0129 19.2273 13.6364V11.4545Z" fill="#828282"/>
</svg>
