<svg width="56" height="56" viewBox="0 0 56 56" fill="none" xmlns="http://www.w3.org/2000/svg">
<rect x="4" y="4" width="48" height="48" rx="24" fill="#E0F2FE"/>
<path d="M28 16C21.3465 16 16 21.3465 16 27.8812C16 34.4158 21.3465 39.7624 28 39.7624C34.6535 39.7624 40 34.4158 40 27.8812C40 21.3465 34.6535 16 28 16ZM34.7129 25.2079C34.0594 28.1188 31.3861 30.198 28.3564 30.198H26.3366L25.2079 35.1881H21.4059L22.5347 30.2574L23.3069 26.7525H27.1683L26.8119 28.4158L31.802 25.4455L28.1188 22.4752L27.7624 24.1386H23.901L24.6733 20.9901C24.6733 20.9901 29.2475 20.5743 31.3267 20.8713C33.2871 21.1683 34.8317 22.5347 34.8317 24.3762C34.7723 24.7327 34.7723 24.9703 34.7129 25.2079Z" fill="#0086C9"/>
<rect x="4" y="4" width="48" height="48" rx="24" stroke="#F5FBFF" stroke-width="8"/>
</svg>
