<svg width="40" height="40" viewBox="0 0 40 40" fill="none" xmlns="http://www.w3.org/2000/svg">
<path opacity="0.2" d="M15 15V17.5C15 18.8261 14.4732 20.0979 13.5355 21.0355C12.5979 21.9732 11.3261 22.5 10 22.5C8.67392 22.5 7.40215 21.9732 6.46447 21.0355C5.52678 20.0979 5 18.8261 5 17.5V15" fill="white"/>
<g opacity="0.2">
<mask id="path-2-inside-1_457_13580" fill="white">
<path d="M35 15V17.5C35 18.8261 34.4732 20.0979 33.5355 21.0355C32.5979 21.9732 31.3261 22.5 30 22.5C28.6739 22.5 27.4021 21.9732 26.4645 21.0355C25.5268 20.0979 25 18.8261 25 17.5V15"/>
</mask>
<path d="M35 15V17.5C35 18.8261 34.4732 20.0979 33.5355 21.0355C32.5979 21.9732 31.3261 22.5 30 22.5C28.6739 22.5 27.4021 21.9732 26.4645 21.0355C25.5268 20.0979 25 18.8261 25 17.5V15" fill="white"/>
<path d="M34 15V17.5H36V15H34ZM34 17.5C34 18.5609 33.5786 19.5783 32.8284 20.3284L34.2426 21.7426C35.3679 20.6174 36 19.0913 36 17.5H34ZM32.8284 20.3284C32.0783 21.0786 31.0609 21.5 30 21.5V23.5C31.5913 23.5 33.1174 22.8679 34.2426 21.7426L32.8284 20.3284ZM30 21.5C28.9391 21.5 27.9217 21.0786 27.1716 20.3284L25.7574 21.7426C26.8826 22.8679 28.4087 23.5 30 23.5V21.5ZM27.1716 20.3284C26.4214 19.5783 26 18.5609 26 17.5H24C24 19.0913 24.6321 20.6174 25.7574 21.7426L27.1716 20.3284ZM26 17.5V15H24V17.5H26Z" fill="white" mask="url(#path-2-inside-1_457_13580)"/>
</g>
<path d="M7.5 21.8125V32.5C7.5 32.8315 7.6317 33.1495 7.86612 33.3839C8.10054 33.6183 8.41848 33.75 8.75 33.75H31.25C31.5815 33.75 31.8995 33.6183 32.1339 33.3839C32.3683 33.1495 32.5 32.8315 32.5 32.5V21.8125" fill="#FAAD14"/>
<path d="M7.5 21.8125V32.5C7.5 32.8315 7.6317 33.1495 7.86612 33.3839C8.10054 33.6183 8.41848 33.75 8.75 33.75H31.25C31.5815 33.75 31.8995 33.6183 32.1339 33.3839C32.3683 33.1495 32.5 32.8315 32.5 32.5V21.8125" stroke="white" stroke-linecap="round" stroke-linejoin="round"/>
<path d="M8.4375 6.25H31.5625C31.8337 6.25223 32.097 6.3415 32.3136 6.50466C32.5302 6.66782 32.6886 6.89623 32.7656 7.15625L35 15H5L7.23437 7.15625C7.31137 6.89623 7.46984 6.66782 7.68644 6.50466C7.90305 6.3415 8.16633 6.25223 8.4375 6.25V6.25Z" stroke="white" stroke-linecap="round" stroke-linejoin="round"/>
<path d="M15 15V17.5C15 18.8261 14.4732 20.0979 13.5355 21.0355C12.5979 21.9732 11.3261 22.5 10 22.5C8.67392 22.5 7.40215 21.9732 6.46447 21.0355C5.52678 20.0979 5 18.8261 5 17.5V15" stroke="white" stroke-linecap="round" stroke-linejoin="round"/>
<path d="M25 15V17.5C25 18.8261 24.4732 20.0979 23.5355 21.0355C22.5979 21.9732 21.3261 22.5 20 22.5C18.6739 22.5 17.4021 21.9732 16.4645 21.0355C15.5268 20.0979 15 18.8261 15 17.5V15" stroke="white" stroke-linecap="round" stroke-linejoin="round"/>
<path d="M35 15V17.5C35 18.8261 34.4732 20.0979 33.5355 21.0355C32.5979 21.9732 31.3261 22.5 30 22.5C28.6739 22.5 27.4021 21.9732 26.4645 21.0355C25.5268 20.0979 25 18.8261 25 17.5V15" stroke="white" stroke-linecap="round" stroke-linejoin="round"/>
</svg>
