<svg width="56" height="56" viewBox="0 0 56 56" fill="none" xmlns="http://www.w3.org/2000/svg">
<rect x="4" y="4" width="48" height="48" rx="24" fill="#E0F2FE"/>
<path d="M39.5969 25.323H32.7397C32.6219 25.323 32.5254 25.4195 32.5254 25.5373V26.823C32.5254 26.9409 32.6219 27.0373 32.7397 27.0373H39.5969C39.7147 27.0373 39.8112 26.9409 39.8112 26.823V25.5373C39.8112 25.4195 39.7147 25.323 39.5969 25.323ZM36.0076 28.9659H32.7397C32.6219 28.9659 32.5254 29.0623 32.5254 29.1802V30.4659C32.5254 30.5838 32.6219 30.6802 32.7397 30.6802H36.0076C36.1254 30.6802 36.2219 30.5838 36.2219 30.4659V29.1802C36.2219 29.0623 36.1254 28.9659 36.0076 28.9659ZM27.0692 22.9257H25.9094C25.7433 22.9257 25.6094 23.0596 25.6094 23.2257V29.8686C25.6094 29.965 25.6549 30.0534 25.7326 30.1097L29.721 33.0186C29.8549 33.115 30.0424 33.0882 30.1388 32.9543L30.8272 32.0141V32.0114C30.9237 31.8775 30.8942 31.69 30.7603 31.5936L27.3665 29.14V23.2257C27.3692 23.0596 27.2326 22.9257 27.0692 22.9257Z" fill="#0086C9"/>
<path d="M35.8425 32.3315H34.2942C34.1442 32.3315 34.0023 32.4092 33.9219 32.5378C33.5812 33.0778 33.1814 33.5782 32.73 34.0297C31.9526 34.8096 31.031 35.431 30.0166 35.8592C28.9639 36.3038 27.8469 36.5288 26.6951 36.5288C25.5407 36.5288 24.4237 36.3038 23.3737 35.8592C22.3585 35.4306 21.4451 34.8146 20.6603 34.0297C19.8755 33.2449 19.2594 32.3315 18.8308 31.3163C18.3862 30.2663 18.1612 29.1494 18.1612 27.9949C18.1612 26.8404 18.3862 25.7262 18.8308 24.6735C19.2594 23.6583 19.8755 22.7449 20.6603 21.9601C21.4451 21.1753 22.3585 20.5592 23.3737 20.1306C24.4237 19.686 25.5434 19.461 26.6951 19.461C27.8496 19.461 28.9666 19.686 30.0166 20.1306C31.0317 20.5592 31.9451 21.1753 32.73 21.9601C33.1814 22.4116 33.5812 22.912 33.9219 23.4521C34.0023 23.5806 34.1442 23.6583 34.2942 23.6583H35.8425C36.0273 23.6583 36.1451 23.4654 36.0621 23.3021C34.3157 19.8279 30.7746 17.5699 26.821 17.5244C21.0326 17.4521 16.2246 22.1904 16.2139 27.9735C16.2032 33.7672 20.8987 38.4681 26.6925 38.4681C30.6969 38.4681 34.2969 36.2021 36.0621 32.6878C36.0809 32.6503 36.0898 32.6086 36.088 32.5667C36.0862 32.5248 36.0737 32.4841 36.0517 32.4484C36.0297 32.4127 35.9989 32.3832 35.9623 32.3627C35.9256 32.3423 35.8844 32.3315 35.8425 32.3315Z" fill="#0086C9"/>
<rect x="4" y="4" width="48" height="48" rx="24" stroke="#F5FBFF" stroke-width="8"/>
</svg>
