<svg width="40" height="40" viewBox="0 0 40 40" fill="none" xmlns="http://www.w3.org/2000/svg">
<path d="M20 25.0001C23.4518 25.0001 26.25 22.2018 26.25 18.7501C26.25 15.2983 23.4518 12.5001 20 12.5001C16.5482 12.5001 13.75 15.2983 13.75 18.7501C13.75 22.2018 16.5482 25.0001 20 25.0001Z" stroke="#25488D" stroke-width="2.5" stroke-linecap="round" stroke-linejoin="round"/>
<path d="M33.75 7.5H6.25C5.55964 7.5 5 8.05964 5 8.75V31.25C5 31.9404 5.55964 32.5 6.25 32.5H33.75C34.4404 32.5 35 31.9404 35 31.25V8.75C35 8.05964 34.4404 7.5 33.75 7.5Z" stroke="#25488D" stroke-width="2.5" stroke-linecap="round" stroke-linejoin="round"/>
<path d="M9.39062 32.5C10.165 30.3047 11.6012 28.4037 13.5014 27.059C15.4016 25.7143 17.6721 24.9922 20 24.9922C22.3279 24.9922 24.5984 25.7143 26.4986 27.059C28.3988 28.4037 29.835 30.3047 30.6094 32.5" stroke="#25488D" stroke-width="2.5" stroke-linecap="round" stroke-linejoin="round"/>
</svg>
