<svg width="40" height="40" viewBox="0 0 40 40" fill="none" xmlns="http://www.w3.org/2000/svg">
<path opacity="0.2" d="M32.0782 11.1093C31.8125 11.2041 31.5322 11.2517 31.2501 11.25C30.5871 11.25 29.9512 10.9866 29.4823 10.5177C29.0135 10.0489 28.7501 9.413 28.7501 8.74995C28.7484 8.46783 28.796 8.18757 28.8907 7.92183C25.7892 5.63743 21.9277 4.63378 18.1063 5.11884C14.285 5.60389 10.7967 7.54046 8.36421 10.5273C5.93175 13.5141 4.74159 17.3223 5.04032 21.1627C5.33905 25.0031 7.10378 28.5814 9.96885 31.1562C10.9095 29.3039 12.3446 27.7483 14.1152 26.6616C15.8858 25.575 17.9227 24.9999 20.0001 25C18.764 25 17.5556 24.6334 16.5278 23.9466C15.5 23.2599 14.6989 22.2838 14.2259 21.1417C13.7528 19.9997 13.629 18.743 13.8702 17.5306C14.1114 16.3183 14.7066 15.2046 15.5807 14.3305C16.4548 13.4565 17.5684 12.8612 18.7808 12.62C19.9932 12.3789 21.2498 12.5027 22.3919 12.9757C23.5339 13.4488 24.51 14.2498 25.1968 15.2776C25.8835 16.3054 26.2501 17.5138 26.2501 18.75C26.2501 20.4076 25.5916 21.9973 24.4195 23.1694C23.2474 24.3415 21.6577 25 20.0001 25C22.0775 24.9999 24.1144 25.575 25.885 26.6616C27.6556 27.7483 29.0907 29.3039 30.0314 31.1562C32.8006 28.6653 34.544 25.2331 34.9224 21.5277C35.3007 17.8222 34.2869 14.1085 32.0782 11.1093V11.1093Z" fill="white"/>
<path d="M20 25C23.4518 25 26.25 22.2018 26.25 18.75C26.25 15.2982 23.4518 12.5 20 12.5C16.5482 12.5 13.75 15.2982 13.75 18.75C13.75 22.2018 16.5482 25 20 25Z" fill="#FAAD14" stroke="white" stroke-miterlimit="10"/>
<path d="M9.96875 31.1562C10.9092 29.3038 12.3443 27.7479 14.1149 26.6611C15.8855 25.5743 17.9225 24.999 20 24.999C22.0775 24.999 24.1145 25.5743 25.8851 26.6611C27.6557 27.7479 29.0908 29.3038 30.0312 31.1562" fill="#FAAD14"/>
<path d="M9.96875 31.1562C10.9092 29.3038 12.3443 27.7479 14.1149 26.6611C15.8855 25.5743 17.9225 24.999 20 24.999C22.0775 24.999 24.1145 25.5743 25.8851 26.6611C27.6557 27.7479 29.0908 29.3038 30.0312 31.1562" stroke="white" stroke-linecap="round" stroke-linejoin="round"/>
<path d="M31.25 11.25C32.6307 11.25 33.75 10.1307 33.75 8.75C33.75 7.36929 32.6307 6.25 31.25 6.25C29.8693 6.25 28.75 7.36929 28.75 8.75C28.75 10.1307 29.8693 11.25 31.25 11.25Z" stroke="white" stroke-linecap="round" stroke-linejoin="round"/>
<path d="M31.25 6.25V4.375" stroke="white" stroke-width="2" stroke-linecap="round" stroke-linejoin="round"/>
<path d="M29.0781 7.5L27.4688 6.5625" stroke="white" stroke-width="2" stroke-linecap="round" stroke-linejoin="round"/>
<path d="M29.0781 10L27.4688 10.9375" stroke="white" stroke-width="2" stroke-linecap="round" stroke-linejoin="round"/>
<path d="M31.25 11.25V13.125" stroke="white" stroke-linecap="round" stroke-linejoin="round"/>
<path d="M33.4219 10L35.0313 10.9375" stroke="white" stroke-linecap="round" stroke-linejoin="round"/>
<path d="M33.4219 7.5L35.0313 6.5625" stroke="white" stroke-width="2" stroke-linecap="round" stroke-linejoin="round"/>
<path d="M34.8906 18.2032C34.9664 18.7991 35.003 19.3993 35 20C35 22.9667 34.1203 25.8668 32.4721 28.3336C30.8238 30.8003 28.4812 32.7229 25.7403 33.8582C22.9994 34.9935 19.9834 35.2906 17.0737 34.7118C14.1639 34.133 11.4912 32.7044 9.39341 30.6066C7.29562 28.5088 5.86701 25.8361 5.28823 22.9264C4.70945 20.0167 5.0065 17.0007 6.14181 14.2598C7.27713 11.5189 9.19972 9.1762 11.6665 7.52798C14.1332 5.87976 17.0333 5.00003 20 5.00003C20.4643 4.9971 20.9285 5.01796 21.3906 5.06253" stroke="white" stroke-width="2" stroke-linecap="round" stroke-linejoin="round"/>
</svg>
